<svg xmlns="http://www.w3.org/2000/svg" version="1.1" xmlns:xlink="http://www.w3.org/1999/xlink" width="512" height="512" x="0" y="0" viewBox="0 0 32 32" style="enable-background:new 0 0 512 512" xml:space="preserve" class=""><g><g data-name="Layer 20"><path d="M28 4H4a2 2 0 0 0-2 2v20a2 2 0 0 0 2 2h13a1 1 0 0 0 0-2H4V6h7.59l3.7 3.71A1 1 0 0 0 16 10h12a1 1 0 0 0 2 0V6a2 2 0 0 0-2-2zM16.41 8l-2-2H28v2z" fill="#4073b8" opacity="1" data-original="#000000" class=""></path><path d="M7 10a1 1 0 0 0 0-2 1 1 0 1 0 0 2zM11 8a1 1 0 1 0 1 1 1 1 0 0 0-1-1zM17 17h-4a1 1 0 0 0 0 2h4a1 1 0 0 0 0-2zM17 13h-4a1 1 0 0 0 0 2h4a1 1 0 0 0 0-2zM17 21h-4a1 1 0 0 0 0 2h4a1 1 0 0 0 0-2zM10 13a1 1 0 0 0-1-1 2 2 0 0 0-2 2v1a1 1 0 0 0 0 2v1a2 2 0 0 0 2 2 1 1 0 0 0 0-2v-1a2 2 0 0 0-.28-1A2 2 0 0 0 9 15v-1a1 1 0 0 0 1-1zM28 13h-6a2 2 0 0 0-2 2v11a2 2 0 0 0 2 2h6a2 2 0 0 0 2-2V15a2 2 0 0 0-2-2zm0 13h-6V15h2v1a1 1 0 0 0 2 0v-1h2z" fill="#4073b8" opacity="1" data-original="#000000" class=""></path></g></g></svg>