<svg xmlns="http://www.w3.org/2000/svg" version="1.1" xmlns:xlink="http://www.w3.org/1999/xlink" width="512" height="512" x="0" y="0" viewBox="0 0 512 512" style="enable-background:new 0 0 512 512" xml:space="preserve" class=""><g><path d="M502.336 149.319H9.834M7.5 362.333V80c0-9.941 8.059-18 18-18H401M436.778 62H486.5c9.941 0 18 8.059 18 18v352c0 9.941-8.059 18-18 18h-461c-9.941 0-18-8.059-18-18v-35.333" style="stroke-width:15;stroke-linecap:round;stroke-linejoin:round;stroke-miterlimit:10;" fill="none" stroke="#1fafeb" stroke-width="15" stroke-linecap="round" stroke-linejoin="round" stroke-miterlimit="10" data-original="#000000" opacity="1"></path><circle cx="62.897" cy="105.658" r="15" style="stroke-width:15;stroke-linecap:round;stroke-linejoin:round;stroke-miterlimit:10;" fill="none" stroke="#1fafeb" stroke-width="15" stroke-linecap="round" stroke-linejoin="round" stroke-miterlimit="10" data-original="#000000" opacity="1"></circle><circle cx="125.397" cy="105.658" r="15" style="stroke-width:15;stroke-linecap:round;stroke-linejoin:round;stroke-miterlimit:10;" fill="none" stroke="#1fafeb" stroke-width="15" stroke-linecap="round" stroke-linejoin="round" stroke-miterlimit="10" data-original="#000000" opacity="1"></circle><circle cx="187.897" cy="105.658" r="15" style="stroke-width:15;stroke-linecap:round;stroke-linejoin:round;stroke-miterlimit:10;" fill="none" stroke="#1fafeb" stroke-width="15" stroke-linecap="round" stroke-linejoin="round" stroke-miterlimit="10" data-original="#000000" opacity="1"></circle><path d="M85.889 407.652h-5.208C66.498 407.652 55 419.23 55 433.512v11.84c0 2.567 2.067 4.648 4.616 4.648h102.768c2.549 0 4.616-2.081 4.616-4.648v-11.84c0-14.282-11.498-25.86-25.681-25.86h-4.874" style="stroke-width:15;stroke-linecap:round;stroke-linejoin:round;stroke-miterlimit:10;" fill="none" stroke="#1fafeb" stroke-width="15" stroke-linecap="round" stroke-linejoin="round" stroke-miterlimit="10" data-original="#000000" opacity="1"></path><path d="M79.999 388.485v-20.972c0-17.121 13.879-31 31-31h0c17.121 0 31 13.879 31 31v20.855c0 17.153-13.905 31.058-31.058 31.058h0c-17.088 0-30.942-13.853-30.942-30.941zM81.512 373.251h58.974M230.889 407.652h-5.208c-14.183 0-25.681 11.578-25.681 25.86v11.84c0 2.567 2.067 4.648 4.616 4.648h102.768c2.549 0 4.616-2.081 4.616-4.648v-11.84c0-14.282-11.498-25.86-25.681-25.86h-4.874" style="stroke-width:15;stroke-linecap:round;stroke-linejoin:round;stroke-miterlimit:10;" fill="none" stroke="#1fafeb" stroke-width="15" stroke-linecap="round" stroke-linejoin="round" stroke-miterlimit="10" data-original="#000000" opacity="1"></path><path d="M224.999 388.485v-20.972c0-17.121 13.879-31 31-31h0c17.121 0 31 13.879 31 31v20.855c0 17.153-13.905 31.058-31.058 31.058h0c-17.088 0-30.942-13.853-30.942-30.941zM226.512 373.251h58.974M375.889 407.652h-5.208c-14.183 0-25.681 11.578-25.681 25.86v11.84c0 2.567 2.067 4.648 4.616 4.648h102.768c2.549 0 4.616-2.081 4.616-4.648v-11.84c0-14.282-11.498-25.86-25.681-25.86h-4.874" style="stroke-width:15;stroke-linecap:round;stroke-linejoin:round;stroke-miterlimit:10;" fill="none" stroke="#1fafeb" stroke-width="15" stroke-linecap="round" stroke-linejoin="round" stroke-miterlimit="10" data-original="#000000" opacity="1"></path><path d="M370 388.485v-20.972c0-17.121 13.879-31 31-31h0c17.121 0 31 13.879 31 31v20.855c0 17.153-13.905 31.058-31.058 31.058h0c-17.089 0-30.942-13.853-30.942-30.941zM371.512 373.251h58.974M299.803 281.632l13.826-76.603c.345-1.794 2.848-1.962 3.429-.23l22.492 76.236c.545 1.624 2.846 1.612 3.375-.017l21.724-76.206c.564-1.737 3.067-1.596 3.431.194l14.644 76.627M190.598 210.3a39.148 39.148 0 0 0-21.991-6.717c-21.722 0-39.332 17.609-39.332 39.332s17.609 39.332 39.332 39.332c8.822 0 16.079-2.905 21.586-7.81a31.45 31.45 0 0 0 3.192-3.294M236.459 244.701l33.044 37.544M227.144 282.246l-.146-78.663h20.904c11.7 0 21.601 9.153 21.601 20.444 0 11.291-9.9 20.444-21.601 20.444-5.803 0-17.694.09-17.694.09" style="stroke-width:15;stroke-linecap:round;stroke-linejoin:round;stroke-miterlimit:10;" fill="none" stroke="#1fafeb" stroke-width="15" stroke-linecap="round" stroke-linejoin="round" stroke-miterlimit="10" data-original="#000000" opacity="1"></path></g></svg>