<svg xmlns="http://www.w3.org/2000/svg" version="1.1" xmlns:xlink="http://www.w3.org/1999/xlink" width="512" height="512" x="0" y="0" viewBox="0 0 512 512" style="enable-background:new 0 0 512 512" xml:space="preserve"><g><path d="M477.735 490.877c-.019-45.4-6.349-80.863-19.35-108.4C441.626 346.99 413.772 325 375.6 317.111l-63.835-11.44v-7.61a105.632 105.632 0 0 0 44.284-56.829c25.645-2.543 45.719-23.592 45.719-49.1a48.515 48.515 0 0 0-15.453-35.38l2.794-14.54c7.108-36.929-16.477-70.018-42.312-89.93-9.582-28.009-32.413-42.2-67.947-42.2h-45.669a116.929 116.929 0 0 0-86.142 38.6c-18.762 21.092-27.387 47.259-24.287 73.678l3.923 33.482a48.586 48.586 0 0 0-16.441 36.293c0 25.506 20.073 46.555 45.718 49.1a105.639 105.639 0 0 0 44.284 56.829v7.609l-63.444 11.366-.39.075C98.228 325 70.374 346.99 53.615 382.48c-13.021 27.576-19.351 63.1-19.351 108.6v10.834h30v-10.831c0-86.653 24.3-132.539 76.443-144.206v78.317a39.832 39.832 0 1 0 30 0v-83.756l35.768-6.407c4.719 10.33 8.774 19.516 12.2 27.271 6.059 13.732 10.438 23.653 14.4 30.82 2.908 5.264 9.714 17.593 22.551 17.637h.069c12.781 0 19.638-12.213 22.57-17.433 3.991-7.11 8.413-16.947 14.534-30.561 3.542-7.879 7.743-17.223 12.647-27.75L340.5 341.3v38a57.36 57.36 0 0 0-42.267 55.259v52.358a15 15 0 0 0 15 15h29.029v-30h-14.03v-37.358a27.267 27.267 0 0 1 54.533 0v37.358h-14.029v30h29.029a15 15 0 0 0 15-15v-52.358A57.36 57.36 0 0 0 370.5 379.3v-32.6c52.687 11.378 77.237 57.289 77.237 144.381v10.629h30v-10.833zm-116.62-315.606a18.655 18.655 0 0 1 0 33.7zm-210.231 33.7a18.654 18.654 0 0 1 0-33.7zm4.823 262.946a9.833 9.833 0 1 1 9.832-9.833 9.843 9.843 0 0 1-9.832 9.833zm-1.981-343-1.178-10.049c-2.088-17.8 3.916-35.642 16.907-50.246a86.49 86.49 0 0 1 63.726-28.537h45.667c29.691 0 37.044 12.117 40.565 25.21a15 15 0 0 0 5.8 8.334c19.8 14.055 39.235 37.964 34.432 62.921l-.972 5.061c-2.986-10.513-8.9-21.549-18.776-26.655-12.261-6.364-26.331-5.618-39.576 2.078-.761.439-3.992 1.68-13.688-.735-8.81-2.193-19.227-6.44-30.256-10.935-27.956-11.4-59.646-24.312-82.752-8.776-9.864 6.631-16.457 17.312-19.899 32.327zm128.037 185.927c-6.533 13.814-11.936 25.832-16.335 35.62-3.354 7.46-6.767 15.051-9.681 21.072-2.9-6.091-6.294-13.785-9.631-21.347-4.282-9.7-9.541-21.619-15.88-35.286v-3.986a105.344 105.344 0 0 0 51.527 0zM256 284.116a75.215 75.215 0 0 1-75.116-75.144v-51.223c0-19.276 3.367-32.156 9.48-36.266 2.228-1.5 5.222-2.137 8.755-2.137 12.089 0 30.476 7.495 45.936 13.8 26.331 10.732 51.2 20.869 70.3 9.852 5.842-3.4 9.1-2.213 10.443-1.557 2.057 1.953 5.318 10.322 5.318 16.311v51.223A75.214 75.214 0 0 1 256 284.116z" fill="#6e7c9a" opacity="1" data-original="#000000"></path></g></svg>