<svg xmlns="http://www.w3.org/2000/svg" version="1.1" xmlns:xlink="http://www.w3.org/1999/xlink" width="512" height="512" x="0" y="0" viewBox="0 0 36 36" style="enable-background:new 0 0 512 512" xml:space="preserve" class=""><g><path d="M7 10.749h10.773C18.197 12.05 19.408 13 20.85 13s2.652-.95 3.076-2.251H29a1 1 0 1 0 0-2h-5.075C23.5 7.449 22.29 6.5 20.85 6.5s-2.651.948-3.076 2.249H7a1 1 0 0 0 0 2zM20.85 8.5a1.251 1.251 0 0 1 0 2.5 1.251 1.251 0 0 1 0-2.5zM7 18.999h1.543c.425 1.301 1.636 2.251 3.077 2.251s2.653-.95 3.077-2.251H29a1 1 0 1 0 0-2H14.696c-.425-1.3-1.636-2.249-3.076-2.249s-2.65.948-3.076 2.249H7a1 1 0 0 0 0 2zm4.62-2.249a1.251 1.251 0 0 1 0 2.5 1.251 1.251 0 0 1 0-2.5zM7 27.249h8.023c.424 1.302 1.635 2.251 3.077 2.251s2.652-.95 3.076-2.251H29a1 1 0 1 0 0-2h-7.824C20.75 23.949 19.54 23 18.1 23s-2.651.948-3.076 2.249H7a1 1 0 1 0 0 2zM18.1 25a1.251 1.251 0 0 1 0 2.5 1.251 1.251 0 0 1 0-2.5z" fill="#265eb1" opacity="1" data-original="#000000" class=""></path><path d="M6 34h24c2.206 0 4-1.794 4-4V6c0-2.206-1.794-4-4-4H6C3.794 2 2 3.794 2 6v24c0 2.206 1.794 4 4 4zM4 6c0-1.103.897-2 2-2h24c1.103 0 2 .897 2 2v24c0 1.103-.897 2-2 2H6c-1.103 0-2-.897-2-2z" fill="#265eb1" opacity="1" data-original="#000000" class=""></path></g></svg>