<svg xmlns="http://www.w3.org/2000/svg" version="1.1" xmlns:xlink="http://www.w3.org/1999/xlink" width="512" height="512" x="0" y="0" viewBox="0 0 32 32" style="enable-background:new 0 0 512 512" xml:space="preserve" class=""><g><path d="M16.493 19.789a5.256 5.256 0 0 1-5.25-5.25c0-.965.785-1.75 1.75-1.75s1.75.785 1.75 1.75c0 .406.136.788.393 1.104a.499.499 0 1 1-.775.631 2.755 2.755 0 0 1-.617-1.734.75.75 0 0 0-1.5 0 4.255 4.255 0 0 0 5.167 4.15.5.5 0 1 1 .217.977 5.304 5.304 0 0 1-1.135.122z" fill="#596b93" opacity="1" data-original="#000000" class=""></path><path d="m14.065 27.5-.176-.001c-1.467-.026-2.764-.653-3.653-1.763-.62-.774-1.243-2.05-1.285-4.069a2.928 2.928 0 0 1-.593.323c-.61.258-1.705.216-2.483-.301-.526-.349-.815-.867-.814-1.458.001-.512.181-.948.519-1.263.396-.369.922-.496 1.297-.536.404-2.075 1.797-3.289 3.636-3.133.807.07 1.515.443 2.049 1.081.975 1.165 1.2 2.933 1.085 4.199a.511.511 0 0 1-.543.453.5.5 0 0 1-.453-.543c.093-1.018-.076-2.537-.855-3.468-.365-.435-.825-.68-1.368-.727-1.421-.118-2.4.88-2.625 2.684a.513.513 0 0 1-.529.438c-.187-.014-.73.02-1.013.286-.085.08-.197.221-.198.532-.003.253.117.456.365.621.449.297 1.196.359 1.54.213.368-.156.858-.364 1.179-1.813.03-.183.065-.37.104-.561a.5.5 0 0 1 .984.178 11.41 11.41 0 0 1-.106.571c-.416 2.467-.111 4.418.888 5.665.7.875 1.728 1.368 2.891 1.389l.158.001c4.753 0 5.902-3.928 6.593-6.285.234-.8.375-1.284.64-1.548.082-.082.25-.212.479-.386 1.157-.876 3.867-2.929 3.718-5.917-.125-2.495-2.278-4.525-4.801-4.525a4.505 4.505 0 0 0-4.5 4.5.5.5 0 0 1-.313.568 1.737 1.737 0 0 0-1.137 1.633c0 .743.478 1.405 1.188 1.647a.5.5 0 1 1-.322.946 2.743 2.743 0 0 1-1.866-2.593c0-1.013.572-1.944 1.454-2.419a5.506 5.506 0 0 1 5.496-5.281c3.047 0 5.648 2.456 5.799 5.475.177 3.516-2.939 5.875-4.112 6.764-.178.134-.312.232-.375.296-.092.113-.256.672-.388 1.122-.67 2.282-2.053 7.005-7.554 7.005z" fill="#596b93" opacity="1" data-original="#000000" class=""></path><path d="M16 31C7.729 31 1 24.271 1 16c0-3.514 1.604-7.769 3.729-9.898 1.036-1.039 2.476-1.351 3.669-.794 1.141.532 1.773 1.72 1.65 3.099-.082.917-.504 1.541-.876 2.091-.414.613-.714 1.056-.517 1.791.213.792.64 1.168 1.521 1.344a.5.5 0 0 1-.195.98c-.787-.156-1.883-.54-2.292-2.065-.315-1.175.2-1.938.654-2.61.334-.494.649-.96.708-1.62.086-.962-.317-1.749-1.077-2.104-.642-.3-1.646-.3-2.539.595C3.771 8.477 2 12.266 2 16c0 7.72 6.28 14 14 14s14-6.28 14-14S23.72 2 16 2c-2.594 0-5.125.714-7.322 2.064a.5.5 0 0 1-.524-.851A14.968 14.968 0 0 1 16 1c8.271 0 15 6.729 15 15s-6.729 15-15 15z" fill="#596b93" opacity="1" data-original="#000000" class=""></path><path d="M20.5 5h-.101a.5.5 0 0 1 0-1h.101a.5.5 0 0 1 0 1zM13.5 10h-.101a.5.5 0 0 1 0-1h.101a.5.5 0 0 1 0 1zM14.6 5h-.1a.5.5 0 0 1 0-1c.276 0 .55.224.55.5s-.174.5-.45.5zM28.5 17h-.101a.5.5 0 0 1 0-1h.101a.5.5 0 0 1 0 1zM22.5 26h-.101a.5.5 0 0 1 0-1h.101a.5.5 0 0 1 0 1zM24.6 22h-.1a.5.5 0 0 1 0-1c.276 0 .55.224.55.5s-.174.5-.45.5zM7.6 25h-.1a.5.5 0 0 1 0-1c.276 0 .55.224.55.5s-.174.5-.45.5zM5.6 16h-.1a.5.5 0 0 1 0-1c.276 0 .55.224.55.5s-.174.5-.45.5zM4.5 13h-.101a.5.5 0 0 1 0-1H4.5a.5.5 0 0 1 0 1z" fill="#596b93" opacity="1" data-original="#000000" class=""></path></g></svg>